#!OML:ASF Y:\EmotionMaleHayes\Project 1\Capture day 1\Session 1\Male1.ASF
:FULLY-SPECIFIED
:DEGREES
1517
root -28.554 17.1236 0.786296 560.246 97.1534 -161.483
lowerback 6.68432 2.10038 -5.51713
upperback 2.6666 2.5029 -0.603508
thorax -1.19155 1.2561 2.27523
lowerneck -20.8862 2.81314 6.23245
upperneck 22.4023 2.36898 -1.30861
head 10.7778 1.51007 -1.13371
rclavicle -2.01269e-014 2.96189e-014
rhumerus -38.1433 8.22155 -86.2231
rradius 48.7502
rwrist -7.31404
rhand -14.6857 -29.0816
rfingers 7.12502
rthumb 11.4679 -58.748
lclavicle -2.01269e-014 2.96189e-014
lhumerus -40.1312 -13.2996 93.7951
lradius 30.2369
lwrist 5.41839
lhand -28.0317 -21.4803
lfingers 7.12502
lthumb -1.41655 8.49472
rfemur 4.36897 -4.20965 10.9278
rtibia 8.11766
rfoot -17.7107 -2.73317
rtoes -4.10755
lfemur 8.54774 -0.130636 -19.7156
ltibia 2.1778
lfoot -13.339 10.6378
ltoes -15.5251
1518
root -28.5578 17.1221 0.787367 560.157 97.1619 -161.508
lowerback 6.68342 2.10318 -5.54429
upperback 2.68365 2.50622 -0.581037
thorax -1.17568 1.25698 2.3137
lowerneck -20.9215 2.79385 6.21469
upperneck 22.4648 2.35039 -1.32379
head 10.8065 1.49932 -1.13887
rclavicle 6.21202e-015 2.08724e-015
rhumerus -38.0681 8.14681 -86.1953
rradius 48.2798
rwrist -6.99641
rhand -14.6551 -28.8147
rfingers 7.12502
rthumb 11.4973 -58.4794
lclavicle 6.21202e-015 2.08724e-015
lhumerus -39.9653 -13.2399 93.7125
lradius 30.3877
lwrist 5.42021
lhand -27.8842 -21.48
lfingers 7.12502
lthumb -1.27409 8.4959
rfemur 4.41276 -4.24924 10.9271
rtibia 8.13951
rfoot -17.6979 -2.797
rtoes -4.4639
lfemur 8.55348 0.188766 -19.6023
ltibia 2.29613
lfoot -13.3745 10.2066
ltoes -15.1888
1519
root -28.5708 17.1205 0.794081 557.95 97.1027 -163.655
lowerback 6.84694 2.11361 -5.34719
upperback 2.6439 2.51996 -0.49619
thorax -1.30496 1.26743 2.28331
lowerneck -20.9496 2.78403 6.17284
upperneck 22.5425 2.32915 -1.24302
head 10.8382 1.49806 -1.10564
rclavicle -1.58779e-014 1.14301e-014
rhumerus -38.1115 8.11638 -86.238
rradius 47.9542
rwrist -6.71956
rhand -14.5809 -28.7644
rfingers 7.12502
rthumb 11.5689 -58.4251
lclavicle -1.58779e-014 1.14301e-014
lhumerus -39.9072 -13.2861 93.635
lradius 30.5433
lwrist 5.26867
lhand -27.7143 -21.5093
lfingers 7.12502
lthumb -1.10995 8.46759
rfemur 4.38405 -4.05779 11.3337
rtibia 8.20679
rfoot -17.7207 -2.87683
rtoes -3.90816
lfemur 8.57679 0.143818 -19.1908
ltibia 2.3372
lfoot -13.2776 10.2263
ltoes -15.1185
1520
root -28.5912 17.122 0.80249 557.646 97.177 -163.991
lowerback 6.94691 2.13131 -5.47455
upperback 2.58621 2.5258 -0.464961
thorax -1.42699 1.27326 2.38121
lowerneck -20.9432 2.79834 6.10919
upperneck 22.5736 2.35724 -1.18764
head 10.848 1.5131 -1.07071
rclavicle -2.1593e-014 1.78906e-015
rhumerus -38.2217 8.19088 -86.3075
rradius 47.7988
rwrist -6.60487
rhand -14.7292 -28.5825
rfingers 7.12502
rthumb 11.4259 -58.2511
lclavicle -2.1593e-014 1.78906e-015
lhumerus -39.8202 -13.3938 93.5613
lradius 30.7313
lwrist 5.21168
lhand -27.494 -21.5968
lfingers 7.12502
lthumb -0.897229 8.38109
rfemur 4.1679 -3.52098 11.528
rtibia 8.3054
rfoot -17.854 -3.19843
rtoes -2.8646
lfemur 8.52969 -0.306096 -19.1864
ltibia 2.19779
lfoot -13.1143 10.7748
ltoes -15.1671
1521
root -28.6053 17.124 0.807487 559.326 97.2262 -162.382
lowerback 6.90122 2.12533 -5.78781
upperback 2.56682 2.4993 -0.501478
thorax -1.42988 1.25986 2.52193
lowerneck -20.8973 2.80798 6.06547
upperneck 22.464 2.38105 -1.16928
head 10.7988 1.52008 -1.05371
rclavicle 3.90115e-015 -1.53064e-014
rhumerus -38.2657 8.13771 -86.3326
rradius 47.6091
rwrist -6.48022
rhand -14.8962 -28.3794
rfingers 7.12502
rthumb 11.2649 -58.0569
lclavicle 3.90115e-015 -1.53064e-014
lhumerus -39.5947 -13.3847 93.4153
lradius 30.8681
lwrist 5.29744
lhand -27.0765 -21.7459
lfingers 7.12502
lthumb -0.494018 8.2333
rfemur 3.99392 -3.16039 11.4048
rtibia 8.34001
rfoot -18.0629 -3.60785
rtoes -1.98931
lfemur 8.49777 -1.04343 -19.6156
ltibia 1.94698
lfoot -13.0959 11.4496
ltoes -14.6128
1522
root -28.6126 17.1234 0.809047 559.237 97.1078 -162.474
lowerback 6.89666 2.08889 -5.75638
upperback 2.56898 2.45345 -0.501522
thorax -1.41994 1.23682 2.50862
lowerneck -20.8613 2.83538 6.13208
upperneck 22.3631 2.3965 -1.16433
head 10.7566 1.53143 -1.06091
rclavicle -2.03754e-015 -5.96354e-015
rhumerus -38.3143 8.03705 -86.361
rradius 47.4137
rwrist -6.30539
rhand -14.386 -29.2106
rfingers 7.12502
rthumb 11.7569 -58.8606
lclavicle -2.03754e-015 -5.96354e-015
lhumerus -39.3782 -13.4023 93.2417
lradius 31.0488
lwrist 5.35074
lhand -27.0065 -21.8299
lfingers 7.12502
lthumb -0.426374 8.14941
rfemur 4.015 -2.98036 11.5516
rtibia 8.28542
rfoot -18.1994 -3.94168
rtoes -1.6497
lfemur 8.4051 -1.05185 -19.5389
ltibia 2.04255
lfoot -13.1301 11.3263
ltoes -14.2273
1523
root -28.6184 17.1212 0.809413 558.114 97.0504 -163.515
lowerback 6.97942 2.07141 -5.60676
upperback 2.56457 2.43442 -0.473836
thorax -1.46445 1.22872 2.4524
lowerneck -20.7963 2.8601 6.23386
upperneck 22.3448 2.42166 -1.23513
head 10.7413 1.54295 -1.09994
rclavicle 2.55935e-015 2.5842e-015
rhumerus -38.4283 7.9935 -86.3887
rradius 47.2264
rwrist -6.12318
rhand -13.5988 -30.5676
rfingers 7.12502
rthumb 12.5159 -60.1728
lclavicle 2.55935e-015 2.5842e-015
lhumerus -39.3118 -13.53 93.1577
lradius 31.3803
lwrist 5.39058
lhand -27.6995 -22.0454
lfingers 7.12502
lthumb -1.09569 7.93156
rfemur 4.08871 -2.9273 11.7537
rtibia 8.28019
rfoot -18.2074 -4.00216
rtoes -1.69206
lfemur 8.33392 -0.364917 -19.1324
ltibia 2.32199
lfoot -13.1297 10.6391
ltoes -14.6061
1524
root -28.6237 17.1186 0.810617 557.56 97.1038 -163.978
lowerback 7.08059 2.0905 -5.59085
upperback 2.52084 2.45191 -0.44258
thorax -1.56819 1.24032 2.46976
lowerneck -20.6459 2.83919 6.2493
upperneck 22.3437 2.4266 -1.33269
head 10.7139 1.53574 -1.13827
rclavicle -2.93456e-014 6.36111e-015
rhumerus -38.6201 7.92269 -86.3773
rradius 47.0232
rwrist -5.94898
rhand -13.4079 -31.0088
rfingers 7.12502
rthumb 12.7 -60.6027
lclavicle -2.93456e-014 6.36111e-015
lhumerus -39.3248 -13.5762 93.1259
lradius 31.7542
lwrist 5.41101
lhand -27.3084 -21.6992
lfingers 7.12502
lthumb -0.717937 8.27929
rfemur 4.1179 -3.10432 11.7485
rtibia 8.34541
rfoot -18.1611 -3.79255
rtoes -1.83055
lfemur 8.38374 0.0316047 -18.9419
ltibia 2.41486
lfoot -13.1895 10.2534
ltoes -15.1058
1525
root -28.6288 17.1162 0.81183 556.48 97.1194 -165.02
lowerback 7.12541 2.0968 -5.47113
upperback 2.48188 2.46324 -0.41861
thorax -1.63095 1.2478 2.42419
lowerneck -20.5672 2.82067 6.33307
upperneck 22.3769 2.41508 -1.46068
head 10.7136 1.52331 -1.20073
rclavicle -6.95746e-015 1.68967e-014
rhumerus -38.7352 7.82273 -86.4104
rradius 46.7656
rwrist -5.90044
rhand -13.5047 -30.99
rfingers 7.12502
rthumb 12.6067 -60.5896
lclavicle -6.95746e-015 1.68967e-014
lhumerus -39.2379 -13.4776 92.9575
lradius 32.0802
lwrist 5.13197
lhand -27.2446 -21.5898
lfingers 7.12502
lthumb -0.656367 8.3889
rfemur 4.12119 -3.24886 11.8539
rtibia 8.37642
rfoot -18.0612 -3.65769
rtoes -1.93133
lfemur 8.42801 0.0895621 -18.7664
ltibia 2.41716
lfoot -13.2148 10.2093
ltoes -15.2529
